<?xml version="1.0" encoding="UTF-8" standalone="no"?>
<!DOCTYPE svg PUBLIC "-//W3C//DTD SVG 1.1//EN" "http://www.w3.org/Graphics/SVG/1.1/DTD/svg11.dtd">
<svg width="100%" height="100%" viewBox="0 0 512 512" version="1.1" xmlns="http://www.w3.org/2000/svg" xmlns:xlink="http://www.w3.org/1999/xlink" xml:space="preserve" xmlns:serif="http://www.serif.com/" style="fill-rule:evenodd;clip-rule:evenodd;stroke-linejoin:round;stroke-miterlimit:2;">
    <g transform="matrix(1,0,0,1,96.1938,-0.0117763)">
        <path d="M311.9,279.5L39.87,37.99C35.41,34.03 29.75,32 24.01,32C20.67,32 17.31,32.69 14.12,34.11C5.531,38.01 0,46.52 0,56.02L0,426.32C0,436.44 6.281,445.5 15.72,448.99C18.423,449.98 21.22,450.468 24.001,450.468C30.907,450.468 37.641,447.466 42.281,441.964L125.761,343.154L184.011,466.254C189.708,478.294 204.021,483.404 215.991,477.674C227.961,471.943 233.051,457.534 227.351,445.494L168.771,321.694L295.971,321.694C305.955,321.694 314.891,315.485 318.421,306.084C321.1,296.7 319.4,286.1 311.9,279.5ZM121.7,273.4L48.01,360.63L48.01,109.6L232.51,273.4L121.7,273.4Z" style="fill:white;fill-rule:nonzero;"/>
    </g>
</svg>
