<?xml version="1.0" encoding="UTF-8" standalone="no"?>
<!DOCTYPE svg PUBLIC "-//W3C//DTD SVG 1.1//EN" "http://www.w3.org/Graphics/SVG/1.1/DTD/svg11.dtd">
<svg width="100%" height="100%" viewBox="0 0 512 512" version="1.1" xmlns="http://www.w3.org/2000/svg" xmlns:xlink="http://www.w3.org/1999/xlink" xml:space="preserve" xmlns:serif="http://www.serif.com/" style="fill-rule:evenodd;clip-rule:evenodd;stroke-linejoin:round;stroke-miterlimit:2;">
    <g transform="matrix(1,0,0,1,96.1938,-0.0117763)">
        <g transform="matrix(0.842945,0,0,0.842945,-55.6008,40.2178)">
            <path d="M152,120C125.49,120 104,141.49 104,168C104,194.51 125.49,216 152,216C178.51,216 200,194.51 200,168C200,141.49 178.5,120 152,120ZM447.1,32L63.1,32C28.65,32 -0.009,60.65 -0.009,96L-0.009,416C-0.009,451.35 28.641,480 63.091,480L447.091,480C482.441,480 511.091,451.35 511.091,416L511.091,96C511.1,60.65 483.3,32 447.1,32ZM463.1,409.3L326.3,223.4C323.8,218.8 318.1,216 312,216C305.887,216 300.18,218.768 296.79,223.379L190.19,367.479L153.1,321.379C149.659,317.1 144.166,314.57 138.33,314.57C132.488,314.57 127,317.099 123.55,321.379L48.03,415.189C48.03,415.16 48.03,415.218 48.03,415.189L47.99,96C47.99,87.178 55.168,80 63.99,80L447.99,80C456.812,80 463.99,87.178 463.99,96L463.99,409.3L463.1,409.3Z" style="fill:white;fill-rule:nonzero;"/>
        </g>
        <g transform="matrix(0.853544,0,0,0.853544,143.003,102.291)">
            <path d="M311.9,279.5L39.87,37.99C35.41,34.03 29.75,32 24.01,32C20.67,32 17.31,32.69 14.12,34.11C5.531,38.01 0,46.52 0,56.02L0,426.32C0,436.44 6.281,445.5 15.72,448.99C18.423,449.98 21.22,450.468 24.001,450.468C30.907,450.468 37.641,447.466 42.281,441.964L125.761,343.154L184.011,466.254C189.708,478.294 204.021,483.404 215.991,477.674C227.961,471.943 233.051,457.534 227.351,445.494L168.771,321.694L295.971,321.694C305.955,321.694 314.891,315.485 318.421,306.084C321.1,296.7 319.4,286.1 311.9,279.5ZM121.7,273.4L48.01,360.63L48.01,109.6L232.51,273.4L121.7,273.4Z" style="fill:rgb(255,158,158);fill-rule:nonzero;"/>
        </g>
    </g>
</svg>
