<?xml version="1.0" encoding="UTF-8" standalone="no"?>
<!DOCTYPE svg PUBLIC "-//W3C//DTD SVG 1.1//EN" "http://www.w3.org/Graphics/SVG/1.1/DTD/svg11.dtd">
<svg width="100%" height="100%" viewBox="0 0 48 48" version="1.1" xmlns="http://www.w3.org/2000/svg" xmlns:xlink="http://www.w3.org/1999/xlink" xml:space="preserve" xmlns:serif="http://www.serif.com/" style="fill-rule:evenodd;clip-rule:evenodd;stroke-linejoin:round;stroke-miterlimit:2;">
    <g id="path1773" transform="matrix(2,0,0,2,0,0)">
        <path d="M2,17C2,19.76 4.239,22 7,22L17,22C19.76,22 22,19.76 22,17L22,7C22,4.24 19.76,2 17,2L7,2C4.239,2 2,4.24 2,7L2,17ZM3.667,17L3.667,7C3.667,5.156 5.159,3.667 7,3.667L17,3.667C18.844,3.667 20.333,5.156 20.333,7L20.333,17C20.333,18.844 18.844,20.333 17,20.333L7,20.333C5.159,20.333 3.667,18.844 3.667,17Z" style="fill:white;fill-rule:nonzero;"/>
    </g>
    <g id="g1643" transform="matrix(0.0874932,0,0,0.0874932,10,1.60284)">
        <path id="path1641" d="M310.6,361.4C323.1,373.9 323.1,394.15 310.6,406.65C304.4,412.9 296.2,416 288,416C279.8,416 271.62,412.875 265.38,406.625L160,301.3L54.63,406.6C48.38,412.9 40.19,416 32,416C23.81,416 15.63,412.9 9.375,406.6C-3.125,394.1 -3.125,373.85 9.375,361.35L114.775,255.95L9.375,150.6C-3.125,138.1 -3.125,117.85 9.375,105.35C21.875,92.85 42.125,92.85 54.625,105.35L160,210.8L265.4,105.4C277.9,92.9 298.15,92.9 310.65,105.4C323.15,117.9 323.15,138.15 310.65,150.65L205.25,256.05L310.6,361.4Z" style="fill:white;fill-rule:nonzero;"/>
    </g>
</svg>
