<?xml version="1.0" encoding="UTF-8" standalone="no"?>
<!DOCTYPE svg PUBLIC "-//W3C//DTD SVG 1.1//EN" "http://www.w3.org/Graphics/SVG/1.1/DTD/svg11.dtd">
<svg width="100%" height="100%" viewBox="0 0 512 512" version="1.1" xmlns="http://www.w3.org/2000/svg" xmlns:xlink="http://www.w3.org/1999/xlink" xml:space="preserve" xmlns:serif="http://www.serif.com/" style="fill-rule:evenodd;clip-rule:evenodd;stroke-linejoin:round;stroke-miterlimit:2;">
    <g transform="matrix(0.749941,0,0,0.749941,136,64.0244)">
        <path d="M310.6,361.4C323.1,373.9 323.1,394.15 310.6,406.65C304.4,412.9 296.2,416 288,416C279.8,416 271.62,412.875 265.38,406.625L160,301.3L54.63,406.6C48.38,412.9 40.19,416 32,416C23.81,416 15.63,412.9 9.375,406.6C-3.125,394.1 -3.125,373.85 9.375,361.35L114.775,255.95L9.375,150.6C-3.125,138.1 -3.125,117.85 9.375,105.35C21.875,92.85 42.125,92.85 54.625,105.35L160,210.8L265.4,105.4C277.9,92.9 298.15,92.9 310.65,105.4C323.15,117.9 323.15,138.15 310.65,150.65L205.25,256.05L310.6,361.4Z" style="fill:white;fill-rule:nonzero;"/>
    </g>
</svg>
