<?xml version="1.0" encoding="UTF-8" standalone="no"?>
<!DOCTYPE svg PUBLIC "-//W3C//DTD SVG 1.1//EN" "http://www.w3.org/Graphics/SVG/1.1/DTD/svg11.dtd">
<svg width="100%" height="100%" viewBox="0 0 24 24" version="1.1" xmlns="http://www.w3.org/2000/svg" xmlns:xlink="http://www.w3.org/1999/xlink" xml:space="preserve" xmlns:serif="http://www.serif.com/" style="fill-rule:evenodd;clip-rule:evenodd;stroke-linejoin:round;stroke-miterlimit:2;">
    <g transform="matrix(0.046875,0,0,0.046875,0,0)">
        <path d="M256,0C114.6,0 0,114.6 0,256C0,397.4 114.6,512 256,512C397.4,512 512,397.4 512,256C512,114.6 397.4,0 256,0ZM256,464C141.3,464 48,370.69 48,256C48,141.31 141.3,48 256,48C370.7,48 464,141.31 464,256C464,370.69 370.7,464 256,464ZM383.1,145.1C370.44,141.272 356.99,148.303 353.1,160.98L313.5,289.4L279.14,161.8C276.4,151.3 266.9,144 256,144C245.1,144 235.6,151.3 232.8,161.8L198.5,289.4L158.9,160.9C154.994,148.23 141.56,141.17 128.9,145.02C116.23,148.911 109.12,162.35 113.02,175.02L177.02,383.02C180.2,393.3 189.7,399.1 200.4,400C211.1,399.813 220.37,392.562 223.15,382.23L256,260.3L288.83,382.2C291.6,392.6 300.9,399.8 311.6,400L312,400C322.52,400 331.84,393.141 334.94,383.06L398.94,175.06C402.8,162.4 395.7,148.1 383.1,145.1Z" style="fill:white;fill-rule:nonzero;"/>
    </g>
</svg>
