<?xml version="1.0" encoding="UTF-8" standalone="no"?>
<!DOCTYPE svg PUBLIC "-//W3C//DTD SVG 1.1//EN" "http://www.w3.org/Graphics/SVG/1.1/DTD/svg11.dtd">
<svg width="100%" height="100%" viewBox="0 0 512 512" version="1.1" xmlns="http://www.w3.org/2000/svg" xmlns:xlink="http://www.w3.org/1999/xlink" xml:space="preserve" xmlns:serif="http://www.serif.com/" style="fill-rule:evenodd;clip-rule:evenodd;stroke-linejoin:round;stroke-miterlimit:2;">
    <g transform="matrix(0.45348,0,0,0.45348,33.8812,-9.04692)">
        <path d="M310.6,361.4C323.1,373.9 323.1,394.15 310.6,406.65C304.4,412.9 296.2,416 288,416C279.8,416 271.62,412.875 265.38,406.625L160,301.3L54.63,406.6C48.38,412.9 40.19,416 32,416C23.81,416 15.63,412.9 9.375,406.6C-3.125,394.1 -3.125,373.85 9.375,361.35L114.775,255.95L9.375,150.6C-3.125,138.1 -3.125,117.85 9.375,105.35C21.875,92.85 42.125,92.85 54.625,105.35L160,210.8L265.4,105.4C277.9,92.9 298.15,92.9 310.65,105.4C323.15,117.9 323.15,138.15 310.65,150.65L205.25,256.05L310.6,361.4Z" style="fill:white;fill-rule:nonzero;"/>
    </g>
    <g transform="matrix(1.14286,0,0,1.14286,1.42109e-14,-36.5714)">
        <path d="M0,80C0,53.49 21.49,32 48,32L144,32C170.5,32 192,53.49 192,80L192,176C192,202.5 170.5,224 144,224L48,224C21.49,224 0,202.5 0,176L0,80ZM16,80L16,176C16,193.7 30.33,208 48,208L144,208C161.7,208 176,193.7 176,176L176,80C176,62.33 161.7,48 144,48L48,48C30.33,48 16,62.33 16,80ZM0,336C0,309.5 21.49,288 48,288L144,288C170.5,288 192,309.5 192,336L192,432C192,458.5 170.5,480 144,480L48,480C21.49,480 0,458.5 0,432L0,336ZM16,336L16,432C16,449.7 30.33,464 48,464L144,464C161.7,464 176,449.7 176,432L176,336C176,318.3 161.7,304 144,304L48,304C30.33,304 16,318.3 16,336ZM400,32C426.5,32 448,53.49 448,80L448,176C448,202.5 426.5,224 400,224L304,224C277.5,224 256,202.5 256,176L256,80C256,53.49 277.5,32 304,32L400,32ZM400,48L304,48C286.3,48 272,62.33 272,80L272,176C272,193.7 286.3,208 304,208L400,208C417.7,208 432,193.7 432,176L432,80C432,62.33 417.7,48 400,48ZM256,336C256,309.5 277.5,288 304,288L400,288C426.5,288 448,309.5 448,336L448,432C448,458.5 426.5,480 400,480L304,480C277.5,480 256,458.5 256,432L256,336ZM272,336L272,432C272,449.7 286.3,464 304,464L400,464C417.7,464 432,449.7 432,432L432,336C432,318.3 417.7,304 400,304L304,304C286.3,304 272,318.3 272,336Z" style="fill:white;fill-rule:nonzero;"/>
    </g>
</svg>
