<?xml version="1.0" encoding="UTF-8" standalone="no"?>
<!DOCTYPE svg PUBLIC "-//W3C//DTD SVG 1.1//EN" "http://www.w3.org/Graphics/SVG/1.1/DTD/svg11.dtd">
<svg width="100%" height="100%" viewBox="0 0 512 512" version="1.1" xmlns="http://www.w3.org/2000/svg" xmlns:xlink="http://www.w3.org/1999/xlink" xml:space="preserve" xmlns:serif="http://www.serif.com/" style="fill-rule:evenodd;clip-rule:evenodd;stroke-linejoin:round;stroke-miterlimit:2;">
    <g transform="matrix(1.10345,0,0,1.10345,-35.3103,-35.3103)">
        <path d="M176,32C202.5,32 224,53.49 224,80L224,176C224,202.5 202.5,224 176,224L80,224C53.49,224 32,202.5 32,176L32,80C32,53.49 53.49,32 80,32L176,32ZM176,80L80,80L80,176L176,176L176,80ZM176,288C202.5,288 224,309.5 224,336L224,432C224,458.5 202.5,480 176,480L80,480C53.49,480 32,458.5 32,432L32,336C32,309.5 53.49,288 80,288L176,288ZM176,336L80,336L80,432L176,432L176,336ZM288,80C288,53.49 309.5,32 336,32L432,32C458.5,32 480,53.49 480,80L480,176C480,202.5 458.5,224 432,224L336,224C309.5,224 288,202.5 288,176L288,80ZM336,176L432,176L432,80L336,80L336,176Z" style="fill:white;fill-rule:nonzero;"/>
    </g>
    <g transform="matrix(1.10345,0,0,1.10345,-35.3103,-35.3103)">
        <path d="M384,272C397.3,272 408,282.7 408,296L408,360L472,360C485.3,360 496,370.7 496,384C496,397.3 485.3,408 472,408L408,408L408,472C408,485.3 397.3,496 384,496C370.7,496 360,485.3 360,472L360,408L296,408C282.7,408 272,397.3 272,384C272,370.7 282.7,360 296,360L360,360L360,296C360,282.7 370.7,272 384,272Z" style="fill:rgb(76,213,49);fill-rule:nonzero;"/>
    </g>
</svg>
