<?xml version="1.0" encoding="UTF-8" standalone="no"?>
<!DOCTYPE svg PUBLIC "-//W3C//DTD SVG 1.1//EN" "http://www.w3.org/Graphics/SVG/1.1/DTD/svg11.dtd">
<svg width="100%" height="100%" viewBox="0 0 24 24" version="1.1" xmlns="http://www.w3.org/2000/svg" xmlns:xlink="http://www.w3.org/1999/xlink" xml:space="preserve" xmlns:serif="http://www.serif.com/" style="fill-rule:evenodd;clip-rule:evenodd;stroke-linejoin:round;stroke-miterlimit:2;">
    <g transform="matrix(0.046875,0,0,0.046875,0,0)">
        <path d="M152,120C125.49,120 104,141.49 104,168C104,194.51 125.49,216 152,216C178.51,216 200,194.51 200,168C200,141.49 178.5,120 152,120ZM447.1,32L63.1,32C28.65,32 -0.009,60.65 -0.009,96L-0.009,416C-0.009,451.35 28.641,480 63.091,480L447.091,480C482.441,480 511.091,451.35 511.091,416L511.091,96C511.1,60.65 483.3,32 447.1,32ZM463.1,409.3L326.3,223.4C323.8,218.8 318.1,216 312,216C305.887,216 300.18,218.768 296.79,223.379L190.19,367.479L153.1,321.379C149.659,317.1 144.166,314.57 138.33,314.57C132.488,314.57 127,317.099 123.55,321.379L48.03,415.189C48.03,415.16 48.03,415.218 48.03,415.189L47.99,96C47.99,87.178 55.168,80 63.99,80L447.99,80C456.812,80 463.99,87.178 463.99,96L463.99,409.3L463.1,409.3Z" style="fill:white;fill-rule:nonzero;"/>
    </g>
</svg>
