<?xml version="1.0" encoding="UTF-8" standalone="no"?>
<!DOCTYPE svg PUBLIC "-//W3C//DTD SVG 1.1//EN" "http://www.w3.org/Graphics/SVG/1.1/DTD/svg11.dtd">
<svg width="100%" height="100%" viewBox="0 0 512 512" version="1.1" xmlns="http://www.w3.org/2000/svg" xmlns:xlink="http://www.w3.org/1999/xlink" xml:space="preserve" xmlns:serif="http://www.serif.com/" style="fill-rule:evenodd;clip-rule:evenodd;stroke-linejoin:round;stroke-miterlimit:2;">
    <g transform="matrix(1,0,0,1,32,0)">
        <path d="M96,192L96,128C96,57.31 153.3,0 224,0C294.7,0 352,57.31 352,128L352,192L368,192C412.2,192 448,227.8 448,272L448,432C448,476.2 412.2,512 368,512L80,512C35.82,512 0,476.2 0,432L0,272C0,227.8 35.82,192 80,192L96,192ZM128,192L320,192L320,128C320,74.98 277,32 224,32C170.1,32 128,74.98 128,128L128,192ZM32,432C32,458.5 53.49,480 80,480L368,480C394.5,480 416,458.5 416,432L416,272C416,245.5 394.5,224 368,224L80,224C53.49,224 32,245.5 32,272L32,432Z" style="fill:white;fill-rule:nonzero;"/>
    </g>
    <g transform="matrix(0.444191,0,0,0.444191,142.287,238.032)">
        <path d="M512,255.1C512,263.288 508.875,271.51 502.625,277.76L430.625,349.76C424.4,356.9 416.2,360 408,360C389.72,360 376,345.05 376,328C376,319.812 379.125,311.62 385.375,305.38L402.8,288L288,288L288,402.8L305.38,385.42C311.6,379.1 319.8,376 328,376C346.28,376 360,390.95 360,408C360,416.188 356.875,424.38 350.625,430.62L278.625,502.62C272.4,508.9 264.2,512 256,512C247.8,512 239.62,508.875 233.38,502.625L161.38,430.625C155.1,424.4 152,416.2 152,408C152,390.95 165.73,376 184,376C192.188,376 200.38,379.125 206.62,385.375L224,402.8L224,288L109.3,288L126.68,305.38C132.9,311.6 136,319.8 136,328C136,345.05 122.27,360 104,360C95.812,360 87.62,356.875 81.38,350.625L9.38,278.625C3.125,272.4 0,264.2 0,255.1C0,246 3.125,238.76 9.375,232.51L81.375,160.51C87.63,155.1 95.81,152 104,152C122.28,152 136,166.95 136,184C136,192.188 132.875,200.38 126.625,206.62L109.3,224L224,224L224,109.3L206.6,126.6C200.4,132.9 192.2,136 184,136C165.72,136 152,121.05 152,104C152,95.812 155.125,87.62 161.375,81.38L233.375,9.38C239.6,3.125 247.8,0 256,0C264.2,0 272.38,3.125 278.62,9.375L350.62,81.375C356.9,87.63 360,95.81 360,104C360,121.05 346.27,136 328,136C319.812,136 311.62,132.875 305.38,126.625L288,109.3L288,224L402.8,224L385.42,206.62C379.1,200.4 376,192.2 376,184C376,166.95 389.73,152 408,152C416.188,152 424.38,155.125 430.62,161.375L502.62,233.375C508.9,239.6 512,247.8 512,255.1Z" style="fill:white;fill-rule:nonzero;"/>
    </g>
</svg>
