<?xml version="1.0" encoding="UTF-8" standalone="no"?>
<!DOCTYPE svg PUBLIC "-//W3C//DTD SVG 1.1//EN" "http://www.w3.org/Graphics/SVG/1.1/DTD/svg11.dtd">
<svg width="100%" height="100%" viewBox="0 0 512 512" version="1.1" xmlns="http://www.w3.org/2000/svg" xmlns:xlink="http://www.w3.org/1999/xlink" xml:space="preserve" xmlns:serif="http://www.serif.com/" style="fill-rule:evenodd;clip-rule:evenodd;stroke-linejoin:round;stroke-miterlimit:2;">
    <g transform="matrix(1,0,0,1,32,0)">
        <path d="M384,32L64,32C28.65,32 0,60.65 0,96L0,416C0,451.35 28.65,480 64,480L384,480C419.35,480 448,451.35 448,416L448,96C448,60.65 419.3,32 384,32Z" style="fill:white;fill-rule:nonzero;"/>
    </g>
    <g transform="matrix(1,0,0,1,32,0)">
        <path d="M238.3,136.8C232.862,125.96 215.11,125.96 209.68,136.8L97.68,360.8C93.727,368.706 96.93,378.32 104.836,382.27C112.742,386.192 122.356,383.02 126.306,375.114L146.196,335.324C147.3,335.6 148.2,336 149.3,336L298.6,336C299.707,336 300.678,335.586 301.723,335.371L321.613,375.161C324.5,380.8 330.1,384 336,384C338.406,384 340.844,383.453 343.141,382.312C351.047,378.359 354.251,368.752 350.297,360.842L238.3,136.8ZM161.9,304L224,179.8L286.1,304L161.9,304Z" style="fill:rgb(40,61,216);fill-rule:nonzero;"/>
    </g>
</svg>
