<?xml version="1.0" encoding="UTF-8" standalone="no"?>
<!DOCTYPE svg PUBLIC "-//W3C//DTD SVG 1.1//EN" "http://www.w3.org/Graphics/SVG/1.1/DTD/svg11.dtd">
<svg width="100%" height="100%" viewBox="0 0 512 512" version="1.1" xmlns="http://www.w3.org/2000/svg" xmlns:xlink="http://www.w3.org/1999/xlink" xml:space="preserve" xmlns:serif="http://www.serif.com/" style="fill-rule:evenodd;clip-rule:evenodd;stroke-linejoin:round;stroke-miterlimit:2;">
    <g transform="matrix(1.14286,0,0,1.14286,1.42109e-14,-36.5714)">
        <path d="M88,32L104,32C117.3,32 128,42.75 128,56C128,69.25 117.3,80 104,80L88,80C65.91,80 48,97.91 48,120L48,136C48,149.3 37.25,160 24,160C10.75,160 0,149.3 0,136L0,120C0,71.4 39.4,32 88,32ZM48,216L48,296C48,309.3 37.25,320 24,320C10.75,320 0,309.3 0,296L0,216C0,202.7 10.75,192 24,192C37.25,192 48,202.7 48,216ZM448,216L448,296C448,309.3 437.3,320 424,320C410.7,320 400,309.3 400,296L400,216C400,202.7 410.7,192 424,192C437.3,192 448,202.7 448,216ZM400,136L400,120C400,97.91 382.1,80 360,80L344,80C330.7,80 320,69.25 320,56C320,42.75 330.7,32 344,32L360,32C408.6,32 448,71.4 448,120L448,136C448,149.3 437.3,160 424,160C410.7,160 400,149.3 400,136ZM448,392C448,440.6 408.6,480 360,480L344,480C330.7,480 320,469.3 320,456C320,442.7 330.7,432 344,432L360,432C382.1,432 400,414.1 400,392L400,376C400,362.7 410.7,352 424,352C437.3,352 448,362.7 448,376L448,392ZM48,392C48,414.1 65.91,432 88,432L104,432C117.3,432 128,442.7 128,456C128,469.3 117.3,480 104,480L88,480C39.4,480 0,440.6 0,392L0,376C0,362.7 10.75,352 24,352C37.25,352 48,362.7 48,376L48,392ZM184,480C170.7,480 160,469.3 160,456C160,442.7 170.7,432 184,432L264,432C277.3,432 288,442.7 288,456C288,469.3 277.3,480 264,480L184,480ZM184,32L264,32C277.3,32 288,42.75 288,56C288,69.25 277.3,80 264,80L184,80C170.7,80 160,69.25 160,56C160,42.75 170.7,32 184,32Z" style="fill:white;fill-rule:nonzero;"/>
    </g>
</svg>
