<?xml version="1.0" encoding="UTF-8" standalone="no"?>
<!DOCTYPE svg PUBLIC "-//W3C//DTD SVG 1.1//EN" "http://www.w3.org/Graphics/SVG/1.1/DTD/svg11.dtd">
<svg width="100%" height="100%" viewBox="0 0 24 24" version="1.1" xmlns="http://www.w3.org/2000/svg" xmlns:xlink="http://www.w3.org/1999/xlink" xml:space="preserve" xmlns:serif="http://www.serif.com/" style="fill-rule:evenodd;clip-rule:evenodd;stroke-linejoin:round;stroke-miterlimit:2;">
    <g transform="matrix(0.046875,0,0,0.046875,1.5,0)">
        <path d="M224,400L368,400L368,256L224.9,256L224,400ZM384,32L64,32C28.8,32 0,60.8 0,96L0,416C0,451.2 28.8,480 64,480L384,480C419.2,480 448,451.2 448,416L448,96C448,60.8 419.2,32 384,32ZM400,416C400,424.674 392.674,432 384,432L64,432C55.328,432 48,424.674 48,416L48,96C48,87.326 55.328,80 64,80L384,80C392.674,80 400,87.326 400,96L400,416ZM80,112L80,256L224,256L224,112L80,112Z" style="fill:white;fill-rule:nonzero;"/>
    </g>
</svg>
