<?xml version="1.0" encoding="UTF-8" standalone="no"?>
<!DOCTYPE svg PUBLIC "-//W3C//DTD SVG 1.1//EN" "http://www.w3.org/Graphics/SVG/1.1/DTD/svg11.dtd">
<svg width="100%" height="100%" viewBox="0 0 512 512" version="1.1" xmlns="http://www.w3.org/2000/svg" xmlns:xlink="http://www.w3.org/1999/xlink" xml:space="preserve" xmlns:serif="http://www.serif.com/" style="fill-rule:evenodd;clip-rule:evenodd;stroke-linejoin:round;stroke-miterlimit:2;">
    <g transform="matrix(1,0,0,1,32,0)">
        <path d="M160,400C160,408.8 152.8,416 144,416C135.2,416 128,408.8 128,400L128,192C128,183.2 135.2,176 144,176C152.8,176 160,183.2 160,192L160,400ZM240,400C240,408.8 232.8,416 224,416C215.2,416 208,408.8 208,400L208,192C208,183.2 215.2,176 224,176C232.8,176 240,183.2 240,192L240,400ZM320,400C320,408.8 312.8,416 304,416C295.2,416 288,408.8 288,400L288,192C288,183.2 295.2,176 304,176C312.8,176 320,183.2 320,192L320,400ZM317.5,24.94L354.2,80L424,80C437.3,80 448,90.75 448,104C448,117.3 437.3,128 424,128L416,128L416,432C416,476.2 380.2,512 336,512L112,512C67.82,512 32,476.2 32,432L32,128L24,128C10.75,128 0,117.3 0,104C0,90.75 10.75,80 24,80L93.82,80L130.5,24.94C140.9,9.357 158.4,0 177.1,0L270.9,0C289.6,0 307.1,9.358 317.5,24.94ZM151.5,80L296.5,80L277.5,51.56C276,49.34 273.5,48 270.9,48L177.1,48C174.5,48 171.1,49.34 170.5,51.56L151.5,80ZM80,432C80,449.7 94.33,464 112,464L336,464C353.7,464 368,449.7 368,432L368,128L80,128L80,432Z" style="fill:white;fill-rule:nonzero;"/>
    </g>
</svg>
